<?xml version="1.0" encoding="UTF-8" standalone="no"?>
<!DOCTYPE svg PUBLIC "-//W3C//DTD SVG 1.1//EN"
 "http://www.w3.org/Graphics/SVG/1.1/DTD/svg11.dtd">
<!-- Generated by graphviz version 2.43.0 (0)
 -->
<!-- Title: %3 Pages: 1 -->
<svg width="588pt" height="692pt"
 viewBox="0.00 0.00 588.24 692.00" xmlns="http://www.w3.org/2000/svg" xmlns:xlink="http://www.w3.org/1999/xlink">
<g id="graph0" class="graph" transform="scale(1 1) rotate(0) translate(4 688)">
<title>%3</title>
<polygon fill="white" stroke="transparent" points="-4,4 -4,-688 584.24,-688 584.24,4 -4,4"/>
<!-- Terraria -->
<g id="node1" class="node">
<title>Terraria</title>
<ellipse fill="none" stroke="black" cx="173.54" cy="-666" rx="48.19" ry="18"/>
<text text-anchor="middle" x="173.54" y="-662.3" font-family="Times,serif" font-size="14.00">Terraria</text>
</g>
<!-- Path of Exile -->
<g id="node2" class="node">
<title>Path of Exile</title>
<ellipse fill="none" stroke="black" cx="69.54" cy="-594" rx="69.59" ry="18"/>
<text text-anchor="middle" x="69.54" y="-590.3" font-family="Times,serif" font-size="14.00">Path of Exile</text>
</g>
<!-- Terraria&#45;&gt;Path of Exile -->
<g id="edge1" class="edge">
<title>Terraria&#45;&gt;Path of Exile</title>
<path fill="none" stroke="black" d="M151.23,-649.98C136.83,-640.29 117.86,-627.52 101.82,-616.73"/>
<polygon fill="black" stroke="black" points="103.51,-613.65 93.26,-610.97 99.61,-619.45 103.51,-613.65"/>
</g>
<!-- Geometry Dash -->
<g id="node3" class="node">
<title>Geometry Dash</title>
<ellipse fill="none" stroke="black" cx="173.54" cy="-522" rx="83.39" ry="18"/>
<text text-anchor="middle" x="173.54" y="-518.3" font-family="Times,serif" font-size="14.00">Geometry Dash</text>
</g>
<!-- Terraria&#45;&gt;Geometry Dash -->
<g id="edge2" class="edge">
<title>Terraria&#45;&gt;Geometry Dash</title>
<path fill="none" stroke="black" d="M173.54,-647.87C173.54,-623.67 173.54,-579.21 173.54,-550.39"/>
<polygon fill="black" stroke="black" points="177.04,-550.19 173.54,-540.19 170.04,-550.19 177.04,-550.19"/>
</g>
<!-- Portal 2 -->
<g id="node4" class="node">
<title>Portal 2</title>
<ellipse fill="none" stroke="black" cx="341.54" cy="-594" rx="47.39" ry="18"/>
<text text-anchor="middle" x="341.54" y="-590.3" font-family="Times,serif" font-size="14.00">Portal 2</text>
</g>
<!-- Terraria&#45;&gt;Portal 2 -->
<g id="edge3" class="edge">
<title>Terraria&#45;&gt;Portal 2</title>
<path fill="none" stroke="black" d="M204.36,-652.16C231.71,-640.76 271.84,-624.04 301.64,-611.63"/>
<polygon fill="black" stroke="black" points="303.04,-614.83 310.93,-607.76 300.35,-608.37 303.04,-614.83"/>
</g>
<!-- Divinity Original Sin 2 -->
<g id="node8" class="node">
<title>Divinity Original Sin 2</title>
<ellipse fill="none" stroke="black" cx="139.54" cy="-450" rx="114.28" ry="18"/>
<text text-anchor="middle" x="139.54" y="-446.3" font-family="Times,serif" font-size="14.00">Divinity Original Sin 2</text>
</g>
<!-- Path of Exile&#45;&gt;Divinity Original Sin 2 -->
<g id="edge16" class="edge">
<title>Path of Exile&#45;&gt;Divinity Original Sin 2</title>
<path fill="none" stroke="black" d="M68.49,-575.9C68.08,-557.18 69.61,-526.79 81.54,-504 87.47,-492.67 96.84,-482.53 106.33,-474.23"/>
<polygon fill="black" stroke="black" points="108.76,-476.76 114.26,-467.7 104.31,-471.36 108.76,-476.76"/>
</g>
<!-- Geometry Dash&#45;&gt;Divinity Original Sin 2 -->
<g id="edge17" class="edge">
<title>Geometry Dash&#45;&gt;Divinity Original Sin 2</title>
<path fill="none" stroke="black" d="M165.31,-504.05C161.45,-496.09 156.74,-486.41 152.42,-477.51"/>
<polygon fill="black" stroke="black" points="155.45,-475.74 147.93,-468.28 149.16,-478.8 155.45,-475.74"/>
</g>
<!-- FTL Faster Than Light -->
<g id="node9" class="node">
<title>FTL Faster Than Light</title>
<ellipse fill="none" stroke="black" cx="281.54" cy="-378" rx="114.28" ry="18"/>
<text text-anchor="middle" x="281.54" y="-374.3" font-family="Times,serif" font-size="14.00">FTL Faster Than Light</text>
</g>
<!-- Geometry Dash&#45;&gt;FTL Faster Than Light -->
<g id="edge18" class="edge">
<title>Geometry Dash&#45;&gt;FTL Faster Than Light</title>
<path fill="none" stroke="black" d="M213.38,-506C230.98,-497.43 250.39,-484.95 262.54,-468 275.46,-449.99 279.92,-425 281.32,-406.08"/>
<polygon fill="black" stroke="black" points="284.82,-406.18 281.83,-396.02 277.83,-405.83 284.82,-406.18"/>
</g>
<!-- Slay the Spire -->
<g id="node5" class="node">
<title>Slay the Spire</title>
<ellipse fill="none" stroke="black" cx="503.54" cy="-522" rx="76.89" ry="18"/>
<text text-anchor="middle" x="503.54" y="-518.3" font-family="Times,serif" font-size="14.00">Slay the Spire</text>
</g>
<!-- Portal 2&#45;&gt;Slay the Spire -->
<g id="edge4" class="edge">
<title>Portal 2&#45;&gt;Slay the Spire</title>
<path fill="none" stroke="black" d="M371.64,-580C396.19,-569.39 431.24,-554.24 459.04,-542.23"/>
<polygon fill="black" stroke="black" points="460.75,-545.3 468.54,-538.12 457.98,-538.88 460.75,-545.3"/>
</g>
<!-- Bloons TD 6 -->
<g id="node6" class="node">
<title>Bloons TD 6</title>
<ellipse fill="none" stroke="black" cx="341.54" cy="-522" rx="66.89" ry="18"/>
<text text-anchor="middle" x="341.54" y="-518.3" font-family="Times,serif" font-size="14.00">Bloons TD 6</text>
</g>
<!-- Portal 2&#45;&gt;Bloons TD 6 -->
<g id="edge5" class="edge">
<title>Portal 2&#45;&gt;Bloons TD 6</title>
<path fill="none" stroke="black" d="M341.54,-575.7C341.54,-567.98 341.54,-558.71 341.54,-550.11"/>
<polygon fill="black" stroke="black" points="345.04,-550.1 341.54,-540.1 338.04,-550.1 345.04,-550.1"/>
</g>
<!-- Baba Is You -->
<g id="node7" class="node">
<title>Baba Is You</title>
<ellipse fill="none" stroke="black" cx="374.54" cy="-450" rx="64.99" ry="18"/>
<text text-anchor="middle" x="374.54" y="-446.3" font-family="Times,serif" font-size="14.00">Baba Is You</text>
</g>
<!-- Slay the Spire&#45;&gt;Baba Is You -->
<g id="edge6" class="edge">
<title>Slay the Spire&#45;&gt;Baba Is You</title>
<path fill="none" stroke="black" d="M474.59,-505.29C456.04,-495.22 431.78,-482.06 411.8,-471.22"/>
<polygon fill="black" stroke="black" points="413.41,-468.11 402.95,-466.42 410.07,-474.26 413.41,-468.11"/>
</g>
<!-- Bloons TD 6&#45;&gt;Baba Is You -->
<g id="edge7" class="edge">
<title>Bloons TD 6&#45;&gt;Baba Is You</title>
<path fill="none" stroke="black" d="M349.53,-504.05C353.29,-496.09 357.85,-486.41 362.05,-477.51"/>
<polygon fill="black" stroke="black" points="365.3,-478.81 366.4,-468.28 358.97,-475.83 365.3,-478.81"/>
</g>
<!-- Bloons TD 6&#45;&gt;Divinity Original Sin 2 -->
<g id="edge8" class="edge">
<title>Bloons TD 6&#45;&gt;Divinity Original Sin 2</title>
<path fill="none" stroke="black" d="M302.12,-507.34C271.39,-496.69 228.38,-481.78 194.31,-469.98"/>
<polygon fill="black" stroke="black" points="195.1,-466.55 184.51,-466.58 192.81,-473.16 195.1,-466.55"/>
</g>
<!-- Baba Is You&#45;&gt;FTL Faster Than Light -->
<g id="edge9" class="edge">
<title>Baba Is You&#45;&gt;FTL Faster Than Light</title>
<path fill="none" stroke="black" d="M352.97,-432.76C340.8,-423.6 325.39,-412 312,-401.92"/>
<polygon fill="black" stroke="black" points="314.06,-399.1 303.97,-395.88 309.85,-404.69 314.06,-399.1"/>
</g>
<!-- ELDEN RING -->
<g id="node10" class="node">
<title>ELDEN RING</title>
<ellipse fill="none" stroke="black" cx="210.54" cy="-306" rx="73.39" ry="18"/>
<text text-anchor="middle" x="210.54" y="-302.3" font-family="Times,serif" font-size="14.00">ELDEN RING</text>
</g>
<!-- Divinity Original Sin 2&#45;&gt;ELDEN RING -->
<g id="edge19" class="edge">
<title>Divinity Original Sin 2&#45;&gt;ELDEN RING</title>
<path fill="none" stroke="black" d="M140.36,-431.96C141.88,-413.3 146.2,-382.96 158.54,-360 164.44,-349.02 173.3,-338.78 182.05,-330.28"/>
<polygon fill="black" stroke="black" points="184.65,-332.64 189.62,-323.28 179.9,-327.49 184.65,-332.64"/>
</g>
<!-- FTL Faster Than Light&#45;&gt;ELDEN RING -->
<g id="edge10" class="edge">
<title>FTL Faster Than Light&#45;&gt;ELDEN RING</title>
<path fill="none" stroke="black" d="M264.36,-360.05C255.46,-351.28 244.45,-340.43 234.72,-330.83"/>
<polygon fill="black" stroke="black" points="237.15,-328.32 227.57,-323.79 232.24,-333.3 237.15,-328.32"/>
</g>
<!-- Superliminal -->
<g id="node11" class="node">
<title>Superliminal</title>
<ellipse fill="none" stroke="black" cx="210.54" cy="-234" rx="70.39" ry="18"/>
<text text-anchor="middle" x="210.54" y="-230.3" font-family="Times,serif" font-size="14.00">Superliminal</text>
</g>
<!-- ELDEN RING&#45;&gt;Superliminal -->
<g id="edge11" class="edge">
<title>ELDEN RING&#45;&gt;Superliminal</title>
<path fill="none" stroke="black" d="M210.54,-287.7C210.54,-279.98 210.54,-270.71 210.54,-262.11"/>
<polygon fill="black" stroke="black" points="214.04,-262.1 210.54,-252.1 207.04,-262.1 214.04,-262.1"/>
</g>
<!-- Nebuchadnezzar -->
<g id="node12" class="node">
<title>Nebuchadnezzar</title>
<ellipse fill="none" stroke="black" cx="280.54" cy="-162" rx="88.28" ry="18"/>
<text text-anchor="middle" x="280.54" y="-158.3" font-family="Times,serif" font-size="14.00">Nebuchadnezzar</text>
</g>
<!-- Superliminal&#45;&gt;Nebuchadnezzar -->
<g id="edge12" class="edge">
<title>Superliminal&#45;&gt;Nebuchadnezzar</title>
<path fill="none" stroke="black" d="M227.13,-216.41C235.9,-207.65 246.81,-196.73 256.49,-187.06"/>
<polygon fill="black" stroke="black" points="258.99,-189.5 263.59,-179.96 254.04,-184.55 258.99,-189.5"/>
</g>
<!-- Rogue Legacy 2 -->
<g id="node13" class="node">
<title>Rogue Legacy 2</title>
<ellipse fill="none" stroke="black" cx="128.54" cy="-90" rx="84.49" ry="18"/>
<text text-anchor="middle" x="128.54" y="-86.3" font-family="Times,serif" font-size="14.00">Rogue Legacy 2</text>
</g>
<!-- Superliminal&#45;&gt;Rogue Legacy 2 -->
<g id="edge13" class="edge">
<title>Superliminal&#45;&gt;Rogue Legacy 2</title>
<path fill="none" stroke="black" d="M200.82,-216.15C186.65,-191.63 160.23,-145.87 143.56,-117"/>
<polygon fill="black" stroke="black" points="146.55,-115.18 138.52,-108.27 140.49,-118.68 146.55,-115.18"/>
</g>
<!-- Last Epoch -->
<g id="node14" class="node">
<title>Last Epoch</title>
<ellipse fill="none" stroke="black" cx="293.54" cy="-90" rx="62.29" ry="18"/>
<text text-anchor="middle" x="293.54" y="-86.3" font-family="Times,serif" font-size="14.00">Last Epoch</text>
</g>
<!-- Nebuchadnezzar&#45;&gt;Last Epoch -->
<g id="edge14" class="edge">
<title>Nebuchadnezzar&#45;&gt;Last Epoch</title>
<path fill="none" stroke="black" d="M283.76,-143.7C285.19,-135.98 286.91,-126.71 288.51,-118.11"/>
<polygon fill="black" stroke="black" points="291.98,-118.58 290.37,-108.1 285.1,-117.3 291.98,-118.58"/>
</g>
<!-- Gears Tactics -->
<g id="node15" class="node">
<title>Gears Tactics</title>
<ellipse fill="none" stroke="black" cx="210.54" cy="-18" rx="73.39" ry="18"/>
<text text-anchor="middle" x="210.54" y="-14.3" font-family="Times,serif" font-size="14.00">Gears Tactics</text>
</g>
<!-- Rogue Legacy 2&#45;&gt;Gears Tactics -->
<g id="edge20" class="edge">
<title>Rogue Legacy 2&#45;&gt;Gears Tactics</title>
<path fill="none" stroke="black" d="M147.98,-72.41C158.6,-63.34 171.92,-51.97 183.53,-42.06"/>
<polygon fill="black" stroke="black" points="185.92,-44.62 191.25,-35.47 181.37,-39.3 185.92,-44.62"/>
</g>
<!-- Last Epoch&#45;&gt;Gears Tactics -->
<g id="edge15" class="edge">
<title>Last Epoch&#45;&gt;Gears Tactics</title>
<path fill="none" stroke="black" d="M274.29,-72.76C263.48,-63.64 249.8,-52.1 237.88,-42.06"/>
<polygon fill="black" stroke="black" points="239.88,-39.16 229.98,-35.39 235.37,-44.51 239.88,-39.16"/>
</g>
</g>
</svg>
