<?xml version="1.0" encoding="UTF-8" standalone="no"?>
<!DOCTYPE svg PUBLIC "-//W3C//DTD SVG 1.1//EN"
 "http://www.w3.org/Graphics/SVG/1.1/DTD/svg11.dtd">
<!-- Generated by graphviz version 2.43.0 (0)
 -->
<!-- Title: %3 Pages: 1 -->
<svg width="237pt" height="1052pt"
 viewBox="0.00 0.00 236.78 1052.00" xmlns="http://www.w3.org/2000/svg" xmlns:xlink="http://www.w3.org/1999/xlink">
<g id="graph0" class="graph" transform="scale(1 1) rotate(0) translate(4 1048)">
<title>%3</title>
<polygon fill="white" stroke="transparent" points="-4,4 -4,-1048 232.78,-1048 232.78,4 -4,4"/>
<!-- Terraria -->
<g id="node1" class="node">
<title>Terraria</title>
<ellipse fill="none" stroke="black" cx="114.39" cy="-1026" rx="48.19" ry="18"/>
<text text-anchor="middle" x="114.39" y="-1022.3" font-family="Times,serif" font-size="14.00">Terraria</text>
</g>
<!-- Portal 2 -->
<g id="node2" class="node">
<title>Portal 2</title>
<ellipse fill="none" stroke="black" cx="114.39" cy="-954" rx="47.39" ry="18"/>
<text text-anchor="middle" x="114.39" y="-950.3" font-family="Times,serif" font-size="14.00">Portal 2</text>
</g>
<!-- Terraria&#45;&gt;Portal 2 -->
<g id="edge1" class="edge">
<title>Terraria&#45;&gt;Portal 2</title>
<path fill="none" stroke="black" d="M114.39,-1007.7C114.39,-999.98 114.39,-990.71 114.39,-982.11"/>
<polygon fill="black" stroke="black" points="117.89,-982.1 114.39,-972.1 110.89,-982.1 117.89,-982.1"/>
</g>
<!-- Geometry Dash -->
<g id="node3" class="node">
<title>Geometry Dash</title>
<ellipse fill="none" stroke="black" cx="114.39" cy="-882" rx="83.39" ry="18"/>
<text text-anchor="middle" x="114.39" y="-878.3" font-family="Times,serif" font-size="14.00">Geometry Dash</text>
</g>
<!-- Portal 2&#45;&gt;Geometry Dash -->
<g id="edge2" class="edge">
<title>Portal 2&#45;&gt;Geometry Dash</title>
<path fill="none" stroke="black" d="M114.39,-935.7C114.39,-927.98 114.39,-918.71 114.39,-910.11"/>
<polygon fill="black" stroke="black" points="117.89,-910.1 114.39,-900.1 110.89,-910.1 117.89,-910.1"/>
</g>
<!-- Path of Exile -->
<g id="node4" class="node">
<title>Path of Exile</title>
<ellipse fill="none" stroke="black" cx="114.39" cy="-810" rx="69.59" ry="18"/>
<text text-anchor="middle" x="114.39" y="-806.3" font-family="Times,serif" font-size="14.00">Path of Exile</text>
</g>
<!-- Geometry Dash&#45;&gt;Path of Exile -->
<g id="edge3" class="edge">
<title>Geometry Dash&#45;&gt;Path of Exile</title>
<path fill="none" stroke="black" d="M114.39,-863.7C114.39,-855.98 114.39,-846.71 114.39,-838.11"/>
<polygon fill="black" stroke="black" points="117.89,-838.1 114.39,-828.1 110.89,-838.1 117.89,-838.1"/>
</g>
<!-- Bloons TD 6 -->
<g id="node5" class="node">
<title>Bloons TD 6</title>
<ellipse fill="none" stroke="black" cx="114.39" cy="-738" rx="66.89" ry="18"/>
<text text-anchor="middle" x="114.39" y="-734.3" font-family="Times,serif" font-size="14.00">Bloons TD 6</text>
</g>
<!-- Path of Exile&#45;&gt;Bloons TD 6 -->
<g id="edge4" class="edge">
<title>Path of Exile&#45;&gt;Bloons TD 6</title>
<path fill="none" stroke="black" d="M114.39,-791.7C114.39,-783.98 114.39,-774.71 114.39,-766.11"/>
<polygon fill="black" stroke="black" points="117.89,-766.1 114.39,-756.1 110.89,-766.1 117.89,-766.1"/>
</g>
<!-- Slay the Spire -->
<g id="node6" class="node">
<title>Slay the Spire</title>
<ellipse fill="none" stroke="black" cx="114.39" cy="-666" rx="76.89" ry="18"/>
<text text-anchor="middle" x="114.39" y="-662.3" font-family="Times,serif" font-size="14.00">Slay the Spire</text>
</g>
<!-- Bloons TD 6&#45;&gt;Slay the Spire -->
<g id="edge5" class="edge">
<title>Bloons TD 6&#45;&gt;Slay the Spire</title>
<path fill="none" stroke="black" d="M114.39,-719.7C114.39,-711.98 114.39,-702.71 114.39,-694.11"/>
<polygon fill="black" stroke="black" points="117.89,-694.1 114.39,-684.1 110.89,-694.1 117.89,-694.1"/>
</g>
<!-- Baba Is You -->
<g id="node7" class="node">
<title>Baba Is You</title>
<ellipse fill="none" stroke="black" cx="114.39" cy="-594" rx="64.99" ry="18"/>
<text text-anchor="middle" x="114.39" y="-590.3" font-family="Times,serif" font-size="14.00">Baba Is You</text>
</g>
<!-- Slay the Spire&#45;&gt;Baba Is You -->
<g id="edge6" class="edge">
<title>Slay the Spire&#45;&gt;Baba Is You</title>
<path fill="none" stroke="black" d="M114.39,-647.7C114.39,-639.98 114.39,-630.71 114.39,-622.11"/>
<polygon fill="black" stroke="black" points="117.89,-622.1 114.39,-612.1 110.89,-622.1 117.89,-622.1"/>
</g>
<!-- FTL Faster Than Light -->
<g id="node8" class="node">
<title>FTL Faster Than Light</title>
<ellipse fill="none" stroke="black" cx="114.39" cy="-522" rx="114.28" ry="18"/>
<text text-anchor="middle" x="114.39" y="-518.3" font-family="Times,serif" font-size="14.00">FTL Faster Than Light</text>
</g>
<!-- Baba Is You&#45;&gt;FTL Faster Than Light -->
<g id="edge7" class="edge">
<title>Baba Is You&#45;&gt;FTL Faster Than Light</title>
<path fill="none" stroke="black" d="M114.39,-575.7C114.39,-567.98 114.39,-558.71 114.39,-550.11"/>
<polygon fill="black" stroke="black" points="117.89,-550.1 114.39,-540.1 110.89,-550.1 117.89,-550.1"/>
</g>
<!-- Divinity Original Sin 2 -->
<g id="node9" class="node">
<title>Divinity Original Sin 2</title>
<ellipse fill="none" stroke="black" cx="114.39" cy="-450" rx="114.28" ry="18"/>
<text text-anchor="middle" x="114.39" y="-446.3" font-family="Times,serif" font-size="14.00">Divinity Original Sin 2</text>
</g>
<!-- FTL Faster Than Light&#45;&gt;Divinity Original Sin 2 -->
<g id="edge8" class="edge">
<title>FTL Faster Than Light&#45;&gt;Divinity Original Sin 2</title>
<path fill="none" stroke="black" d="M114.39,-503.7C114.39,-495.98 114.39,-486.71 114.39,-478.11"/>
<polygon fill="black" stroke="black" points="117.89,-478.1 114.39,-468.1 110.89,-478.1 117.89,-478.1"/>
</g>
<!-- ELDEN RING -->
<g id="node10" class="node">
<title>ELDEN RING</title>
<ellipse fill="none" stroke="black" cx="114.39" cy="-378" rx="73.39" ry="18"/>
<text text-anchor="middle" x="114.39" y="-374.3" font-family="Times,serif" font-size="14.00">ELDEN RING</text>
</g>
<!-- Divinity Original Sin 2&#45;&gt;ELDEN RING -->
<g id="edge9" class="edge">
<title>Divinity Original Sin 2&#45;&gt;ELDEN RING</title>
<path fill="none" stroke="black" d="M114.39,-431.7C114.39,-423.98 114.39,-414.71 114.39,-406.11"/>
<polygon fill="black" stroke="black" points="117.89,-406.1 114.39,-396.1 110.89,-406.1 117.89,-406.1"/>
</g>
<!-- Superliminal -->
<g id="node11" class="node">
<title>Superliminal</title>
<ellipse fill="none" stroke="black" cx="114.39" cy="-306" rx="70.39" ry="18"/>
<text text-anchor="middle" x="114.39" y="-302.3" font-family="Times,serif" font-size="14.00">Superliminal</text>
</g>
<!-- ELDEN RING&#45;&gt;Superliminal -->
<g id="edge10" class="edge">
<title>ELDEN RING&#45;&gt;Superliminal</title>
<path fill="none" stroke="black" d="M114.39,-359.7C114.39,-351.98 114.39,-342.71 114.39,-334.11"/>
<polygon fill="black" stroke="black" points="117.89,-334.1 114.39,-324.1 110.89,-334.1 117.89,-334.1"/>
</g>
<!-- Rogue Legacy 2 -->
<g id="node12" class="node">
<title>Rogue Legacy 2</title>
<ellipse fill="none" stroke="black" cx="114.39" cy="-234" rx="84.49" ry="18"/>
<text text-anchor="middle" x="114.39" y="-230.3" font-family="Times,serif" font-size="14.00">Rogue Legacy 2</text>
</g>
<!-- Superliminal&#45;&gt;Rogue Legacy 2 -->
<g id="edge11" class="edge">
<title>Superliminal&#45;&gt;Rogue Legacy 2</title>
<path fill="none" stroke="black" d="M114.39,-287.7C114.39,-279.98 114.39,-270.71 114.39,-262.11"/>
<polygon fill="black" stroke="black" points="117.89,-262.1 114.39,-252.1 110.89,-262.1 117.89,-262.1"/>
</g>
<!-- Nebuchadnezzar -->
<g id="node13" class="node">
<title>Nebuchadnezzar</title>
<ellipse fill="none" stroke="black" cx="114.39" cy="-162" rx="88.28" ry="18"/>
<text text-anchor="middle" x="114.39" y="-158.3" font-family="Times,serif" font-size="14.00">Nebuchadnezzar</text>
</g>
<!-- Rogue Legacy 2&#45;&gt;Nebuchadnezzar -->
<g id="edge12" class="edge">
<title>Rogue Legacy 2&#45;&gt;Nebuchadnezzar</title>
<path fill="none" stroke="black" d="M114.39,-215.7C114.39,-207.98 114.39,-198.71 114.39,-190.11"/>
<polygon fill="black" stroke="black" points="117.89,-190.1 114.39,-180.1 110.89,-190.1 117.89,-190.1"/>
</g>
<!-- Last Epoch -->
<g id="node14" class="node">
<title>Last Epoch</title>
<ellipse fill="none" stroke="black" cx="114.39" cy="-90" rx="62.29" ry="18"/>
<text text-anchor="middle" x="114.39" y="-86.3" font-family="Times,serif" font-size="14.00">Last Epoch</text>
</g>
<!-- Nebuchadnezzar&#45;&gt;Last Epoch -->
<g id="edge13" class="edge">
<title>Nebuchadnezzar&#45;&gt;Last Epoch</title>
<path fill="none" stroke="black" d="M114.39,-143.7C114.39,-135.98 114.39,-126.71 114.39,-118.11"/>
<polygon fill="black" stroke="black" points="117.89,-118.1 114.39,-108.1 110.89,-118.1 117.89,-118.1"/>
</g>
<!-- Gears Tactics -->
<g id="node15" class="node">
<title>Gears Tactics</title>
<ellipse fill="none" stroke="black" cx="114.39" cy="-18" rx="73.39" ry="18"/>
<text text-anchor="middle" x="114.39" y="-14.3" font-family="Times,serif" font-size="14.00">Gears Tactics</text>
</g>
<!-- Last Epoch&#45;&gt;Gears Tactics -->
<g id="edge14" class="edge">
<title>Last Epoch&#45;&gt;Gears Tactics</title>
<path fill="none" stroke="black" d="M114.39,-71.7C114.39,-63.98 114.39,-54.71 114.39,-46.11"/>
<polygon fill="black" stroke="black" points="117.89,-46.1 114.39,-36.1 110.89,-46.1 117.89,-46.1"/>
</g>
</g>
</svg>
